# xmcd
#
# Track frame offsets:
#	150
#	10620
#	22573
#	36459
#	47485
#	58223
#	69425
#	79945
#	93049
#	106770
#	114887
#	129745
#	142804
#	152770
#	166276
#	179170
#
# Disc length: 2513 seconds
#
# Revision: 0
# Processed by: cddbd v1.5.2PL0 Copyright (c) Steve Scherf et al.
# Submitted via: EasyCDDAExtractor 16.0.6.1
#
DISCID=c109cf10
DTITLE=Μητσιάς Μανώλης - Τα τραγούδια μου-Μ. Μητσιάς 1
DYEAR=2010
DGENRE=Ποικίλη
TTITLE0=Όσο αγαπιόμαστε τα δυό [Λ. Κηλαηδόνης]
TTITLE1=Στην Ελευσίνα μιά φορά [Δ. Μούτσης-Β. Ανδρεόπουλος]
TTITLE2=Αυτά τα χέρια [Δ. Μούτσης-Λ. Παπαδόπουλος]
TTITLE3=Κοίταξε να δεις [Λ. Κηλαηδόνης-Γ. Λογοθέτης]
TTITLE4=Με το πρώτο λεωφορείο [Δ. Μούτσης-Γ. Λογοθέτης]
TTITLE5=Αχ και νά 'τανε σαν χθες [Γ. Σπανός-Κ. Κωτούλας]
TTITLE6=Το Μαρικάκι [Γ. Σπανός-Λ. Παπαδόπουλος]
TTITLE7=Κάποια νύχτα [Δ. Μούτσης-Ν. Γκάτσος]
TTITLE8=Κυριακή πρωΐ [Θεόδ. Γραμματικόπουλος]
TTITLE9=Ο δραγουμάνος του βεζύρη [Λ. Κηλαηδόνης-Λ. Παπαδόπουλος]
TTITLE10=Η πολιτεία [Αντ. Κατινάρης-Ε. Παπαγιαννοπούλου]
TTITLE11=Τι να πούμε, τι [Γ. Χατζηνάσιος-Γ. Λογοθέτης]
TTITLE12=Πέρνα να τα πούμε [Γ. Χατζηνάσιος-Γ. Λογοθέτης]
TTITLE13=Είχα όνειρα μεγάλα [Γ. Χατζηνάσιος-Γ. Λογοθέτης]
TTITLE14=Πάρε τον ηλεκτρικό [Γ. Χατζηνάσιος-Γ. Λογοθέτης]
TTITLE15=Πού θα πάει, πού [Γ. Χατζηνάσιος-Τ. Οικονόμου]
EXTD=
EXTT0=
EXTT1=
EXTT2=
EXTT3=
EXTT4=
EXTT5=
EXTT6=
EXTT7=
EXTT8=
EXTT9=
EXTT10=
EXTT11=
EXTT12=
EXTT13=
EXTT14=
EXTT15=
PLAYORDER=
